<svg xmlns="http://www.w3.org/2000/svg" viewBox="0 0 1000 1000" role="img" aria-label="城职灵导校园简化地图备用图">
  <defs>
    <linearGradient id="water" x1="0" y1="0" x2="1" y2="1">
      <stop offset="0" stop-color="#b9ecff"/>
      <stop offset="1" stop-color="#7fd6f6"/>
    </linearGradient>
    <filter id="shadow" x="-20%" y="-20%" width="140%" height="140%">
      <feDropShadow dx="0" dy="8" stdDeviation="10" flood-color="#0f3d5e" flood-opacity=".14"/>
    </filter>
  </defs>
  <rect width="1000" height="1000" rx="80" fill="#eef9f5"/>
  <path d="M30 800C200 700 280 780 420 660S700 440 960 520v460H30z" fill="#d8f4df"/>
  <path d="M40 120C180 50 350 80 470 120s230 50 490-30v250c-230 70-480-60-680 0-110 40-200 10-240-30z" fill="#e3f4ff"/>
  <path d="M780 690c70-60 160-40 190 30 30 80-60 160-170 130-80-20-100-100-20-160z" fill="url(#water)" opacity=".72"/>
  <g fill="none" stroke="#fff" stroke-width="52" stroke-linecap="round" stroke-linejoin="round">
    <path d="M500 900 500 760 450 630 500 490 550 250"/>
    <path d="M450 630C550 580 610 530 700 480"/>
    <path d="M450 630C360 550 310 480 250 400"/>
    <path d="M700 480C720 390 750 310 800 240"/>
    <path d="M250 400C400 430 530 480 700 480"/>
  </g>
  <g font-family="Arial, 'Microsoft YaHei', sans-serif" font-size="34" font-weight="700" fill="#244355" text-anchor="middle">
    <g transform="translate(500 900)">
      <rect x="-90" y="-70" width="180" height="120" rx="18" fill="#fff" filter="url(#shadow)"/>
      <path d="M-60 40v-60l30-30h60l30 30v60M-20 40v-40h40v40" fill="#edf8ff" stroke="#168aad" stroke-width="10" stroke-linejoin="round"/>
      <text y="100">校门口</text>
    </g>
    <g transform="translate(450 630)">
      <rect x="-90" y="-80" width="180" height="140" rx="18" fill="#fff" filter="url(#shadow)"/>
      <path d="M-60 50v-100H60V50zM-30-20h20M20-20h20M-30 15h20M20 15h20" fill="#e8efff" stroke="#4f6bed" stroke-width="9" stroke-linecap="round" stroke-linejoin="round"/>
      <text y="120">教学楼</text>
    </g>
    <g transform="translate(700 480)">
      <rect x="-80" y="-70" width="160" height="130" rx="18" fill="#fffaf2" filter="url(#shadow)"/>
      <path d="M-40-50v90M0-50v90M40-50v90M-50-10h100" stroke="#ff8a3d" stroke-width="11" stroke-linecap="round"/>
      <text y="120">食堂</text>
    </g>
    <g transform="translate(250 400)">
      <rect x="-80" y="-70" width="160" height="130" rx="18" fill="#fff" filter="url(#shadow)"/>
      <path d="M-50 40v-70L0-60l50 30v70M-20 40V-10h40v50" fill="#e9fff4" stroke="#19a974" stroke-width="10" stroke-linejoin="round"/>
      <text y="120">实训楼</text>
    </g>
    <g transform="translate(550 250)">
      <rect x="-80" y="-70" width="160" height="130" rx="18" fill="#fff" filter="url(#shadow)"/>
      <path d="M-60 50v-90l40-20 20 20 20-20 40 20v90M-20-50v100M20-50v100" fill="#dff2ff" stroke="#2d6cdf" stroke-width="9" stroke-linejoin="round"/>
      <text y="120">图书馆</text>
    </g>
    <g transform="translate(800 240)">
      <rect x="-90" y="-70" width="180" height="130" rx="18" fill="#fff9ed" filter="url(#shadow)"/>
      <path d="M-50 35 0-55 50 35z" fill="#ffcf5a" stroke="#de8f22" stroke-width="10" stroke-linejoin="round"/>
      <circle cx="0" cy="0" r="18" fill="#fff"/>
      <text y="120">技能节报名点</text>
    </g>
  </g>
</svg>
